<svg width="17" height="17" viewBox="0 0 17 17" fill="none" xmlns="http://www.w3.org/2000/svg">
<path d="M14.6629 7.51392H12.0664C11.8809 7.51392 11.7292 7.66562 11.7292 7.85103C11.7292 8.03644 11.8809 8.18814 12.0664 8.18814H12.2892V12.9411C12.2892 13.535 12.7707 14.0165 13.3646 14.0165C13.9586 14.0165 14.4401 13.535 14.4401 12.9411V8.18814H14.6629C14.8484 8.18814 15.0001 8.03643 15.0001 7.85103C15.0001 7.66562 14.8484 7.51392 14.6629 7.51392Z" stroke="#563F34" stroke-linecap="round" stroke-linejoin="round"/>
<path d="M12.2893 9.33146C12.2893 9.33146 12.6403 9.09095 12.8688 9.18567C13.0973 9.2804 13.4873 9.4197 13.6155 9.33055C13.7436 9.2414 14.1838 8.97433 14.4401 9.16358" stroke="#563F34" stroke-linecap="round" stroke-linejoin="round"/>
<path d="M13.6328 10.1293C13.7215 10.1503 13.7764 10.2392 13.7555 10.3279C13.7345 10.4165 13.6456 10.4715 13.5569 10.4505C13.4683 10.4296 13.4133 10.3407 13.4342 10.252C13.4552 10.1633 13.5441 10.1084 13.6328 10.1293Z" fill="#1A1C20" stroke="#563F34"/>
<path d="M13.1141 11.2143C13.1774 11.2172 13.2268 11.2713 13.224 11.3347C13.2217 11.3821 13.1909 11.4214 13.1489 11.4369L13.1037 11.4436C13.0406 11.4405 12.992 11.3874 12.9947 11.3243L13.0055 11.2798C13.0247 11.2394 13.0666 11.2123 13.1141 11.2143Z" fill="#1A1C20" stroke="#563F34"/>
<path d="M13.3674 12.8936C13.3681 12.8938 13.3692 12.8953 13.3704 12.8965C13.3715 12.8976 13.372 12.8987 13.3723 12.8994C13.3725 12.8998 13.3733 12.9005 13.3733 12.9023C13.3733 12.9043 13.3725 12.9049 13.3723 12.9053C13.372 12.906 13.3715 12.907 13.3704 12.9082C13.3692 12.9094 13.3681 12.9099 13.3674 12.9102C13.367 12.9103 13.3664 12.9111 13.3645 12.9111C13.3627 12.9111 13.362 12.9103 13.3616 12.9102C13.3609 12.9099 13.3598 12.9093 13.3586 12.9082C13.3575 12.907 13.356 12.906 13.3557 12.9053V12.8994L13.3616 12.8936H13.3674Z" fill="#1A1C20" stroke="#563F34"/>
<path d="M6.75729 11.6476C6.75729 12.4182 6.13255 13.0429 5.36192 13.0429C4.93348 13.0429 4.55013 12.8498 4.29414 12.5459C4.08972 12.3032 3.96655 11.9897 3.96655 11.6476C3.96655 10.8769 4.59129 10.2522 5.36192 10.2522C5.82661 10.2522 6.23821 10.4794 6.49186 10.8287C6.65883 11.0587 6.75729 11.3416 6.75729 11.6476Z" stroke="#563F34" stroke-linecap="round" stroke-linejoin="round"/>
<path d="M7.56665 11.6445H9.38301" stroke="#563F34" stroke-linecap="round" stroke-linejoin="round"/>
<path d="M6.67429 6.11558C6.67429 6.88621 6.04954 7.51095 5.27892 7.51095C4.85048 7.51095 4.46713 7.31784 4.21114 7.01391C4.00672 6.77119 3.88354 6.45777 3.88354 6.11558C3.88354 5.34496 4.50829 4.72021 5.27891 4.72021C5.74361 4.72021 6.1552 4.94739 6.40885 5.29668C6.57582 5.52667 6.67429 5.80965 6.67429 6.11558Z" stroke="#563F34" stroke-linecap="round" stroke-linejoin="round"/>
<path d="M5.95679 5.6488L5.08691 6.58227L4.60107 6.12952" stroke="#563F34" stroke-linecap="round" stroke-linejoin="round"/>
<path d="M7.48364 6.30603H9.3" stroke="#563F34" stroke-linecap="round" stroke-linejoin="round"/>
<path d="M8.39209 5.39783V7.21419" stroke="#563F34" stroke-linecap="round" stroke-linejoin="round"/>
<path d="M13.368 7.51385V4.7162V4.71601L10.1881 1.20728H1.99976V15.7879L13.368 15.7927V14.0164" stroke="#563F34" stroke-linecap="round" stroke-linejoin="round"/>
<path d="M10.1882 1.20728V4.71615H13.3681" stroke="#563F34" stroke-linecap="round" stroke-linejoin="round"/>
</svg>
