<svg width="11" height="18" viewBox="0 0 11 18" fill="none" xmlns="http://www.w3.org/2000/svg">
<path d="M0.833333 17.9167L3.16667 6.16667L1.66667 6.75V9.58333H0V5.66667L4.20833 3.875C4.40278 3.79167 4.60764 3.74306 4.82292 3.72917C5.03819 3.71528 5.24306 3.74306 5.4375 3.8125C5.63194 3.88194 5.81597 3.97917 5.98958 4.10417C6.16319 4.22917 6.30556 4.38889 6.41667 4.58333L7.25 5.91667C7.61111 6.5 8.10069 6.97917 8.71875 7.35417C9.33681 7.72917 10.0417 7.91667 10.8333 7.91667V9.58333C9.86111 9.58333 8.99306 9.38194 8.22917 8.97917C7.46528 8.57639 6.8125 8.0625 6.27083 7.4375L5.75 10L7.5 11.6667V17.9167H5.83333V12.5L4.08333 11.1667L2.58333 17.9167H0.833333ZM6.25 3.33333C5.79167 3.33333 5.39931 3.17014 5.07292 2.84375C4.74653 2.51736 4.58333 2.125 4.58333 1.66667C4.58333 1.20833 4.74653 0.815972 5.07292 0.489583C5.39931 0.163194 5.79167 0 6.25 0C6.70833 0 7.10069 0.163194 7.42708 0.489583C7.75347 0.815972 7.91667 1.20833 7.91667 1.66667C7.91667 2.125 7.75347 2.51736 7.42708 2.84375C7.10069 3.17014 6.70833 3.33333 6.25 3.33333Z" fill="#5E39E0"/>
</svg>
