<svg width="16" height="18" viewBox="0 0 16 18" fill="none" xmlns="http://www.w3.org/2000/svg">
<path d="M10.233 16.6481C11.2926 16.6481 12.1516 15.8243 12.1516 14.8082C12.1516 13.7921 11.2926 12.9684 10.233 12.9684C9.17342 12.9684 8.31445 13.7921 8.31445 14.8082C8.31445 15.8243 9.17342 16.6481 10.233 16.6481Z" stroke="#563F34" stroke-width="1.5" stroke-miterlimit="10" stroke-linecap="round" stroke-linejoin="round"/>
<path d="M7.92283 12.9764L6.43042 0.750122" stroke="#563F34" stroke-width="1.5" stroke-miterlimit="10" stroke-linecap="round" stroke-linejoin="round"/>
<path d="M6.24571 0.763306L4.97876 12.9763" stroke="#563F34" stroke-width="1.5" stroke-miterlimit="10" stroke-linecap="round" stroke-linejoin="round"/>
<path d="M7.92316 12.9764H4.97876" stroke="#563F34" stroke-width="1.5" stroke-miterlimit="10" stroke-linecap="round" stroke-linejoin="round"/>
<path d="M8.75439 13.6357L7.92285 12.9763" stroke="#563F34" stroke-width="1.5" stroke-miterlimit="10" stroke-linecap="round" stroke-linejoin="round"/>
<path d="M2.66856 16.6481C3.72814 16.6481 4.58711 15.8243 4.58711 14.8082C4.58711 13.7921 3.72814 12.9684 2.66856 12.9684C1.60897 12.9684 0.75 13.7921 0.75 14.8082C0.75 15.8243 1.60897 16.6481 2.66856 16.6481Z" stroke="#563F34" stroke-width="1.5" stroke-miterlimit="10" stroke-linecap="round" stroke-linejoin="round"/>
<path d="M4.97877 12.9763L4.14722 13.6357" stroke="#563F34" stroke-width="1.5" stroke-miterlimit="10" stroke-linecap="round" stroke-linejoin="round"/>
<path d="M14.2191 16.7501C13.7296 16.7501 13.3328 16.4159 13.3328 16.0037V7.31079H15.1055V16.0037C15.1055 16.4159 14.7087 16.7501 14.2191 16.7501Z" stroke="#563F34" stroke-width="1.5" stroke-miterlimit="10" stroke-linecap="round" stroke-linejoin="round"/>
<path d="M13.6998 7.31085V5.92643C13.0778 5.34322 12.7617 4.60515 12.7617 3.86442C12.7617 3.23184 12.9923 2.5974 13.4598 2.05589C13.9706 1.46448 14.5535 0.997087 15.1055 1.02766V7.31086" stroke="#563F34" stroke-width="1.5" stroke-miterlimit="10" stroke-linecap="round" stroke-linejoin="round"/>
<path d="M15.1053 11.7321L13.3325 12.4831" stroke="#563F34" stroke-width="1.5" stroke-miterlimit="10" stroke-linecap="round" stroke-linejoin="round"/>
<path d="M15.1053 11.0984L13.3325 11.8494" stroke="#563F34" stroke-width="1.5" stroke-miterlimit="10" stroke-linecap="round" stroke-linejoin="round"/>
<path d="M15.1053 10.4647L13.3325 11.2158" stroke="#563F34" stroke-width="1.5" stroke-miterlimit="10" stroke-linecap="round" stroke-linejoin="round"/>
<path d="M15.1053 9.83118L13.3325 10.5822" stroke="#563F34" stroke-width="1.5" stroke-miterlimit="10" stroke-linecap="round" stroke-linejoin="round"/>
<path d="M15.1053 9.19751L13.3325 9.94856" stroke="#563F34" stroke-width="1.5" stroke-miterlimit="10" stroke-linecap="round" stroke-linejoin="round"/>
<path d="M15.1053 8.56384L13.3325 9.31489" stroke="#563F34" stroke-width="1.5" stroke-miterlimit="10" stroke-linecap="round" stroke-linejoin="round"/>
<path d="M15.1053 7.9303L13.3325 8.68135" stroke="#563F34" stroke-width="1.5" stroke-miterlimit="10" stroke-linecap="round" stroke-linejoin="round"/>
<path d="M5.68652 6.153L6.99625 5.38428" stroke="#563F34" stroke-width="1.5" stroke-miterlimit="10" stroke-linecap="round" stroke-linejoin="round"/>
</svg>
